<svg width="256" height="200" viewBox="0 0 256 200" fill="none" xmlns="http://www.w3.org/2000/svg">
<g opacity="0.3" filter="url(#filter0_f_954_268)">
<path d="M134.969 111.837C137.488 108.532 142.818 109.732 143.968 113.725C149.39 132.552 158.369 147.803 167.384 165.632C168.476 167.792 169.393 169.635 170.16 171.198C172.354 175.671 170.515 181.036 165.747 182.48C158.76 184.595 151.819 184.595 138.198 184.595C128.826 184.595 121.841 182.231 117.729 180.323C114.946 179.031 113.476 176.138 113.475 173.07C113.474 171.689 113.474 170.286 113.475 169.264C113.477 166.411 118.288 134.986 128.106 120.955C128.856 119.88 131.95 115.798 134.969 111.837Z" fill="#ADCCFB"/>
<path d="M153.713 113.916C151.508 110.211 155.124 105.93 159.295 107.021C162.408 107.835 165.8 108.614 168.953 109.113C180.99 111.015 190.068 110.448 199.547 110.054C200.108 110.031 200.668 109.957 201.218 109.844C201.49 109.788 201.755 109.736 202.01 109.686C206.209 108.877 209.066 112.038 208.825 116.308C208.512 121.884 207.95 129.483 207.04 134.503C205.857 141.027 202.205 148.693 199.332 154.002C197.227 157.894 192.607 159.373 189.147 156.615C188.181 155.844 187.14 154.934 186.051 153.863C185.583 153.403 185.085 152.985 184.554 152.6C174.715 145.451 161.96 127.773 153.713 113.916Z" fill="#ADCCFB"/>
<path d="M56.2268 83.2268C67.972 83.2914 91.0937 83.6881 99.8049 85.7517C110.082 88.1865 114.733 88.5224 125.197 93.0066C125.954 93.3378 128.28 93.9975 131.125 94.7493C135.721 95.9638 136.209 102.616 131.913 104.654C115.602 112.39 101.318 122.149 87.7112 135.626C84.9235 137.872 81.3009 140.135 78.177 141.937C74.2661 144.193 69.3621 143.121 66.6145 139.539C64.769 137.133 62.7187 134.377 61.1106 131.999C53.4957 122.005 46.8552 104.318 47.9041 90.1687C48.2158 85.967 52.0135 83.2037 56.2268 83.2268Z" fill="#ADCCFB"/>
<path d="M162.339 42.2996C163.13 37.8388 168.563 35.678 171.747 38.9002C176.221 43.4222 180.429 47.9384 184.443 52.805C185.631 54.2463 187.217 56.4732 188.543 58.3943C190.183 60.7722 190.604 63.7755 189.696 66.5178C188.801 69.2201 187.661 72.5059 186.861 74.2664C182.629 86.0551 174.289 93.3608 170.765 95.2088C168.948 96.1617 164.905 96.9355 161.416 97.4617C158.329 97.9271 155.751 95.263 156.185 92.1712C158.796 73.582 160.793 62.2834 162.074 44.3411C162.12 43.6937 162.214 43.0037 162.339 42.2996Z" fill="#ADCCFB"/>
<path d="M75.9304 24.9949C85.6759 16.7489 106.138 14.3905 119.378 15.4182C126.825 18.1147 129.045 27.9991 131.396 34.637C136.033 47.7133 140.277 60.9351 144.049 74.3137C144.962 77.554 145.96 81.1814 146.818 84.7058C146.963 85.3001 146.975 86.0328 146.909 86.8045C146.66 89.7215 143.361 90.9972 140.806 89.5686C137.646 87.8018 133.908 85.5594 132.755 84.241C114.697 69.2663 91.5699 54.624 70.5618 43.343C70.5376 43.3249 70.5012 43.3006 70.5012 43.3006V43.2947C66.5477 41.0578 66.6263 35.6953 70.0359 30.865C71.6984 28.5134 73.8508 26.6453 75.9304 24.9949Z" fill="#ADCCFB"/>
</g>
<defs>
<filter id="filter0_f_954_268" x="0" y="-27.9569" width="255.914" height="255.914" filterUnits="userSpaceOnUse" color-interpolation-filters="sRGB">
<feFlood flood-opacity="0" result="BackgroundImageFix"/>
<feBlend mode="normal" in="SourceGraphic" in2="BackgroundImageFix" result="shape"/>
<feGaussianBlur stdDeviation="13.9785" result="effect1_foregroundBlur_954_268"/>
</filter>
</defs>
</svg>
