<svg width="16" height="16" viewBox="0 0 16 16" fill="none" xmlns="http://www.w3.org/2000/svg">
<path d="M13.5 0H2.5C1.11929 0 0 1.11929 0 2.5V13.5C0 14.8807 1.11929 16 2.5 16H13.5C14.8807 16 16 14.8807 16 13.5V2.5C16 1.11929 14.8807 0 13.5 0Z" fill="#0966C2"/>
<path d="M5.16718 12.9317H2.97813V6.0427H5.16718V12.9317ZM4.07265 5.07695C3.36443 5.07695 2.84937 4.56188 2.84937 3.85366C2.84937 3.14544 3.42882 2.63037 4.07265 2.63037C4.78087 2.63037 5.29594 3.14544 5.29594 3.85366C5.29594 4.56188 4.78087 5.07695 4.07265 5.07695ZM13.1507 12.9317H10.9617V9.19749C10.9617 8.10297 10.511 7.78106 9.86717 7.78106C9.22333 7.78106 8.5795 8.29612 8.5795 9.26188V12.9317H6.39046V6.0427H8.45073V7.00845C8.64388 6.55777 9.41648 5.84955 10.511 5.84955C11.7343 5.84955 13.022 6.55777 13.022 8.68243V12.9317H13.1507Z" fill="white"/>
</svg>
