<svg width="1662" height="215" viewBox="0 0 1662 215" fill="none" xmlns="http://www.w3.org/2000/svg">
<path d="M107.065 119.344C109.586 116.037 114.918 117.238 116.069 121.233C121.494 140.07 130.476 155.328 139.496 173.165C140.589 175.327 141.507 177.171 142.274 178.735C144.024 182.301 143.209 186.431 140.392 188.694C139.032 190.107 137.122 191.064 135.012 191.459C128.593 192.975 121.6 192.935 114.166 192.985C111.765 192.99 109.234 192.994 106.838 192.874C100.024 192.529 94.6912 190.994 90.9393 189.478C87.1026 188.107 84.891 184.945 84.8709 180.798C84.681 175.867 85.1565 174.405 86.2469 167.957C88.5831 156.042 92.64 138.182 100.704 127.452C102.485 125.146 104.331 122.414 106.357 120.223L106.437 120.143V120.154C106.46 120.128 106.484 120.103 106.507 120.078C106.693 119.833 106.879 119.588 107.065 119.344Z" fill="black"/>
<path d="M126.076 116.362C127.203 114.851 129.227 113.957 131.403 114.526C134.518 115.341 137.912 116.12 141.066 116.619C153.109 118.522 162.191 117.955 171.676 117.561C172.236 117.538 172.798 117.464 173.348 117.351C173.62 117.295 173.884 117.242 174.139 117.193C178.341 116.383 181.199 119.546 180.959 123.818C180.645 129.397 180.083 136.999 179.173 142.022C177.989 148.549 174.335 156.219 171.461 161.531C171.211 161.993 170.924 162.419 170.609 162.81C169.263 164.682 167.436 166.219 165.106 166.352C161.75 166.657 159.164 163.8 156.838 161.83C145.337 152.855 133.586 136.876 125.082 121.974L125.047 121.884L125.056 121.889C124.2 120.021 124.548 117.703 126.076 116.362Z" fill="black"/>
<path d="M28.284 90.7202C40.0351 90.7848 63.1679 91.1819 71.8836 93.2465C82.1661 95.6825 86.8196 96.0189 97.2879 100.505C98.0456 100.837 100.373 101.496 103.22 102.248C107.618 103.411 108.255 109.549 104.542 111.865C104.145 112.252 103.697 112.601 103.216 112.905C88.1232 120.498 74.4959 129.208 61.7196 141.499C58.6382 144.586 55.0815 147.057 51.3348 149.258C47.8081 151.594 43.1557 152.254 39.704 149.428C37.8131 147.947 36.4069 145.831 34.9413 143.875C33.5907 142.005 32.2453 140.138 30.9647 138.262C24.1365 128.132 18.3383 112.355 19.2186 99.0131C19.3345 97.254 19.9662 95.734 20.9569 94.5278C22.4097 92.1423 25.2382 90.7036 28.284 90.7202Z" fill="black"/>
<path d="M135.411 47.4204C137.303 44.6661 141.306 43.7849 143.862 46.3715C148.338 50.8957 152.548 55.4137 156.564 60.2827C157.753 61.7246 159.34 63.9524 160.666 65.8745C162.307 68.2535 162.728 71.2586 161.819 74.0024C160.924 76.706 159.784 79.994 158.983 81.7553C157.432 86.0757 155.328 89.793 153.113 92.8618C149.394 98.363 144.876 102.725 140.675 104.225C135.507 105.741 127.288 108.027 127.668 99.978C128.083 95.5262 128.948 90.8489 129.478 86.8022C131.074 75.847 132.291 66.9119 133.201 55.5366C133.356 53.8109 133.421 52.0295 133.856 50.3588L133.881 50.2631V50.2582C134.133 49.1597 134.68 48.1894 135.411 47.4204Z" fill="black"/>
<path d="M48.1639 32.3207C57.9787 24.1833 78.2941 21.8551 91.4657 22.8774C98.9175 25.575 101.138 35.4646 103.491 42.1059C108.13 55.1888 112.376 68.4169 116.15 81.8022C117.064 85.0442 118.062 88.6734 118.921 92.1997C119.065 92.7942 119.077 93.5272 119.012 94.2993C118.904 95.5547 118.232 96.5048 117.298 97.0678C117.2 97.183 117.097 97.2975 116.982 97.4067C113.776 99.9029 109.209 96.0362 106.508 94.3803C87.1831 78.2623 63.901 63.6497 41.745 51.3686C37.1282 48.3021 38.8133 42.1946 41.8045 38.3627C43.2802 36.3869 45.1714 34.6952 47.0672 33.1645L47.1376 33.1098H47.1424C47.474 32.8404 47.8146 32.5773 48.1639 32.3207Z" fill="black"/>
<path fill-rule="evenodd" clip-rule="evenodd" d="M1168.76 52.5869C1167.65 91.7581 1167.28 130.929 1167.84 170.101C1167.84 179.893 1165.62 188.209 1160.62 194.86C1155.81 201.697 1148.78 206.685 1139.53 210.011C1130.28 213.337 1119.74 215 1107.34 215C1095.87 215 1086.07 213.522 1077.74 210.565C1069.42 207.609 1062.94 203.36 1058.5 197.632C1054.06 192.089 1051.47 185.437 1051.1 177.861C1064.05 177.492 1077 177.307 1089.95 177.122C1090.69 180.817 1092.73 183.589 1095.87 185.252C1099.2 186.915 1103.46 187.839 1108.64 187.654C1114.74 187.654 1119.55 186.36 1122.88 183.589C1126.4 180.817 1128.06 176.013 1128.06 169.361V149.591H1126.77C1126.77 149.96 1126.4 150.331 1126.4 150.7C1124.73 154.211 1122.33 157.352 1119.37 159.938C1116.41 162.525 1112.71 164.557 1108.27 165.851C1103.83 167.144 1099.2 167.884 1094.02 167.884C1085.33 167.884 1077.56 166.035 1070.71 162.155C1063.87 158.275 1058.5 151.993 1054.62 143.494C1050.73 134.995 1048.7 124.093 1048.51 111.159C1048.51 97.8559 1050.36 86.5847 1054.43 77.7158C1058.5 68.8468 1064.05 62.3792 1070.9 58.499C1077.74 54.4341 1085.33 52.5869 1093.65 52.5869C1099.02 52.5869 1103.83 53.5109 1108.08 55.1738C1112.34 56.8367 1116.04 59.0535 1118.81 62.0098C1121.59 64.966 1123.81 68.1073 1125.66 71.9873C1126.03 72.5416 1126.4 73.2812 1126.77 74.2051H1127.88V54.0645C1141.57 53.8797 1155.26 53.326 1168.76 52.5869ZM1109.01 83.6279C1105.12 83.6279 1101.79 84.7369 1098.83 86.9541C1096.06 89.1713 1093.84 92.3129 1092.36 96.5625C1090.88 100.812 1090.14 105.801 1090.14 111.713C1090.14 117.441 1090.88 122.43 1092.54 126.68C1094.21 130.929 1096.24 133.885 1099.02 136.103C1101.79 138.135 1105.12 139.244 1109.01 139.244C1113.08 139.244 1116.59 138.135 1119.37 135.918H1119.18C1121.96 133.701 1124.18 130.56 1125.84 126.495C1127.51 122.43 1128.25 117.441 1128.25 111.713C1128.25 105.801 1127.51 100.812 1126.03 96.5625C1124.55 92.3128 1122.33 89.1713 1119.37 86.9541C1116.41 84.7369 1112.89 83.6279 1109.01 83.6279Z" fill="black"/>
<path d="M1275.7 12.6768C1288.84 12.6768 1300.49 14.8946 1310.67 19.3291C1320.84 23.7636 1328.8 30.4152 1334.9 39.2842C1341.01 48.1531 1344.34 58.8694 1345.45 71.4336C1331.76 71.4336 1318.07 71.6189 1304.19 71.8037C1303.64 66.9998 1302.34 62.7498 1300.12 59.2393C1297.9 55.7286 1294.76 52.9573 1290.87 50.9248C1286.99 48.8923 1282.17 47.9678 1276.81 47.9678C1269.59 47.9678 1263.67 49.6311 1258.68 53.1416C1253.68 56.6522 1249.98 61.6414 1247.21 68.1084C1244.62 74.5753 1243.32 82.5204 1243.32 91.7588C1243.32 101.367 1244.62 109.312 1247.21 115.779C1249.8 122.246 1253.68 127.05 1258.49 130.376C1263.3 133.702 1269.22 135.364 1276.26 135.364C1281.44 135.364 1286.06 134.44 1289.95 132.777C1293.83 130.93 1296.98 128.528 1299.38 125.202C1301.79 121.876 1303.27 117.996 1304.01 113.562C1317.7 113.746 1331.39 114.116 1345.26 114.301C1344.52 123.724 1341.56 132.962 1336.01 141.646C1330.65 150.331 1322.69 157.353 1312.52 162.711C1302.34 168.069 1289.94 170.84 1275.51 170.655C1261.08 170.655 1247.95 167.7 1236.85 161.787C1225.56 155.874 1216.87 147.005 1210.76 134.995C1204.66 122.985 1201.7 108.573 1201.7 91.7588C1201.7 74.9448 1204.66 60.3479 1211.13 48.3379C1217.42 36.3279 1226.12 27.4586 1237.4 21.5459C1248.5 15.6332 1261.45 12.6768 1275.7 12.6768Z" fill="black"/>
<path fill-rule="evenodd" clip-rule="evenodd" d="M656.812 13.7852C655.147 66.0752 655.147 118.365 656.812 170.471C643.306 169.732 629.8 169.362 616.295 169.177V150.33H615.185C615 150.884 614.815 151.254 614.63 151.624C612.965 155.319 610.56 158.645 607.6 161.417C604.64 164.188 600.94 166.405 596.685 168.068C592.43 169.731 587.619 170.471 582.439 170.655C573.743 170.655 565.973 168.807 559.128 164.373L559.314 164.004C552.468 159.754 547.102 153.287 543.032 144.418C539.147 135.549 537.298 124.462 537.298 111.344C537.298 97.8556 539.518 86.5848 543.588 77.7158C547.658 68.6622 553.208 62.1948 560.053 58.1299C566.898 53.8802 574.484 52.0322 582.624 52.0322C587.989 52.0322 592.614 52.9563 596.869 54.6191C601.124 56.2821 604.64 58.6843 607.415 61.6406C610.375 64.5969 612.595 67.9229 614.26 71.6182C614.445 72.1721 614.63 72.5417 614.63 72.7266C614.63 72.9113 614.815 73.2816 615 73.8359H615.555C615.555 54.2504 615.555 34.8492 615.925 15.2637C629.615 15.0789 643.306 14.5242 656.812 13.7852ZM597.239 82.8896C593.354 82.8897 590.024 83.9977 587.249 86.2148C584.474 88.4321 582.254 91.5735 580.773 95.8232C579.293 100.073 578.369 105.062 578.369 110.975C578.369 116.887 579.109 121.876 580.589 126.126C582.069 130.375 584.289 133.516 587.065 135.918C589.84 138.135 593.169 139.429 597.239 139.429C601.309 139.429 604.64 138.32 607.6 135.918L607.785 135.733C610.745 133.331 612.965 130.19 614.445 125.94C615.925 121.691 616.665 116.702 616.665 110.975C616.665 105.247 615.925 100.073 614.26 95.8232C612.78 91.5735 610.56 88.4321 607.6 86.2148C604.64 83.9977 601.309 82.8896 597.239 82.8896Z" fill="black"/>
<path fill-rule="evenodd" clip-rule="evenodd" d="M784.74 13.7852C783.075 66.0752 783.075 118.365 784.74 170.471C771.235 169.732 757.73 169.362 744.225 169.177V150.33H743.114C742.929 150.884 742.745 151.254 742.56 151.624C740.895 155.319 738.489 158.645 735.529 161.417C732.569 164.189 729.053 166.405 724.613 168.068C720.358 169.731 715.548 170.471 710.368 170.655C701.673 170.655 693.903 168.807 687.058 164.373V164.004C680.213 159.754 674.848 153.287 670.777 144.418C666.892 135.549 665.042 124.462 665.042 111.344C665.042 97.8556 667.262 86.5848 671.332 77.7158C675.402 68.6621 680.953 62.1948 687.798 58.1299C694.643 53.8803 702.228 52.0322 710.368 52.0322C715.733 52.0322 720.358 52.9563 724.613 54.6191C728.868 56.2821 732.384 58.6843 735.159 61.6406C737.934 64.5969 740.339 67.9229 742.004 71.6182C742.189 72.1722 742.374 72.5417 742.374 72.7266C742.374 72.9113 742.559 73.2816 742.744 73.8359H743.484C743.484 54.2504 743.485 34.8492 743.855 15.2637C757.545 15.0789 771.235 14.5242 784.74 13.7852ZM724.983 82.8896C721.098 82.8897 717.768 83.9977 714.993 86.2148C712.218 88.4321 709.999 91.5736 708.519 95.8232C707.039 100.073 706.113 105.062 706.113 110.975C706.113 116.887 706.853 121.876 708.333 126.126C709.813 130.376 712.034 133.516 714.809 135.918C717.769 138.135 720.913 139.429 724.983 139.429C728.869 139.429 732.384 138.32 735.344 135.918L735.529 135.733C738.489 133.331 740.71 130.19 742.19 125.94C743.854 121.691 744.409 116.702 744.409 110.975C744.409 105.247 743.669 100.073 742.004 95.8232C740.524 91.5736 738.304 88.4321 735.344 86.2148C732.384 83.9977 729.053 82.8896 724.983 82.8896Z" fill="black"/>
<path d="M407.753 52.4053C421.443 52.9596 435.134 53.3289 448.64 53.5137C448.825 75.3165 449.009 96.9345 449.009 118.737C449.009 122.617 449.749 126.129 451.044 128.9C452.339 131.672 454.374 133.889 456.779 135.367C459.184 136.845 462.33 137.584 465.66 137.584C469.175 137.584 472.32 136.845 475.095 135.367C477.87 133.889 479.906 131.486 481.386 128.715C482.866 125.759 483.42 122.433 483.42 118.553C483.42 96.9346 483.42 75.1318 483.79 53.5137L483.976 53.6982C497.666 53.6982 511.356 53.1441 524.861 52.5898C523.381 91.7611 523.381 130.932 524.861 170.104C511.911 169.549 498.961 169.18 486.011 168.995C486.011 161.789 486.01 154.398 485.825 147.192H484.53C481.94 154.398 477.685 160.126 471.21 164.191C464.92 168.256 457.335 170.289 448.64 170.474C440.499 170.474 433.469 168.995 427.363 165.3C421.258 161.789 416.633 156.8 413.488 150.148C410.343 143.497 408.863 135.921 408.863 127.237C409.048 102.293 408.863 77.3492 407.753 52.4053Z" fill="black"/>
<path d="M1411.63 52.4033C1425.32 52.9576 1439.01 53.327 1452.51 53.5117C1452.7 75.3146 1452.88 96.9334 1452.88 118.736C1452.88 122.616 1453.62 126.127 1454.92 128.898C1456.21 131.67 1458.25 133.887 1460.65 135.365C1463.24 136.843 1466.21 137.582 1469.54 137.582C1473.05 137.582 1476.19 136.843 1478.97 135.365C1481.74 133.887 1483.78 131.485 1485.26 128.714C1486.74 125.758 1487.48 122.431 1487.3 118.551C1487.3 96.9328 1487.3 75.1297 1487.67 53.5117L1487.85 53.6963C1501.54 53.6963 1515.23 53.1422 1528.74 52.5879C1527.26 91.7592 1527.26 130.931 1528.74 170.103C1515.79 169.548 1502.84 169.178 1489.89 168.993C1489.89 161.787 1489.89 154.396 1489.7 147.19H1488.41C1486 154.396 1481.56 160.125 1475.09 164.189C1468.61 168.254 1461.21 170.287 1452.51 170.472C1444.37 170.472 1437.34 168.993 1431.24 165.298C1425.13 161.787 1420.51 156.798 1417.36 150.146C1414.22 143.495 1412.55 135.919 1412.74 127.235C1412.92 102.291 1412.74 77.3473 1411.63 52.4033Z" fill="black"/>
<path d="M992.521 52.2178C1000.66 52.2178 1007.88 53.6952 1013.98 57.3906C1020.09 60.9012 1024.71 65.8904 1027.86 72.542C1031 79.1936 1032.48 86.5845 1032.48 95.2686C1032.3 120.397 1032.48 145.342 1033.59 170.471C1019.9 169.916 1006.21 169.546 992.706 169.361C992.521 147.559 992.336 125.756 992.336 103.953C992.336 100.073 991.595 96.7471 990.485 93.9756C989.19 91.2041 987.155 88.987 984.565 87.5088C981.976 86.0307 978.83 85.2911 975.315 85.291C971.8 85.291 968.84 86.0306 966.065 87.5088C963.475 88.9869 961.255 91.204 959.96 94.1602C958.48 96.9316 957.74 100.442 957.925 104.322C957.925 126.125 957.925 147.744 957.555 169.547L957.369 169.177C943.679 169.177 929.989 169.732 916.483 170.286C917.964 131.115 917.964 91.9428 916.483 52.7715C929.434 53.3258 942.384 53.6951 955.334 53.8799C955.334 61.0858 955.335 68.2921 955.52 75.498H956.63C959.22 68.2922 963.66 62.7496 969.95 58.5C976.425 54.4351 983.825 52.4026 992.521 52.2178Z" fill="black"/>
<path d="M388.705 13.417C386.855 65.707 386.855 117.997 388.705 170.103C375.015 169.548 361.324 168.994 347.448 168.81C347.078 148.485 346.894 128.344 346.894 108.02H289.911C289.911 128.344 289.727 148.485 289.357 168.81C275.666 168.994 261.975 169.548 248.1 170.103C249.95 117.997 249.95 65.707 248.1 13.417C261.79 13.9713 275.481 14.5262 289.357 14.7109C289.727 34.8508 289.911 55.1755 289.911 75.3154H346.894C346.894 55.1755 347.078 34.8508 347.448 14.7109C361.139 14.5262 374.83 13.9713 388.705 13.417Z" fill="black"/>
<path d="M899.113 52.5879C899.113 91.7591 899.113 130.93 899.483 170.102C885.793 167.884 872.103 167.884 858.598 170.102C858.968 130.934 859.153 91.7669 858.968 52.5996C872.41 53.5108 885.67 53.5075 899.113 52.5879Z" fill="black"/>
<path d="M842.449 13.416C841.894 65.7058 841.894 117.996 842.449 170.101C828.759 168.068 815.069 168.068 801.564 170.101C802.119 117.811 802.119 65.521 801.564 13.416C815.254 15.4484 828.944 15.4484 842.449 13.416Z" fill="black"/>
<path d="M1398.04 13.416C1397.49 65.7058 1397.49 117.996 1398.04 170.101C1384.35 168.068 1370.66 168.068 1357.16 170.101C1357.71 117.811 1357.71 65.521 1357.16 13.416C1370.85 15.4484 1384.54 15.4484 1398.04 13.416Z" fill="black"/>
<path fill-rule="evenodd" clip-rule="evenodd" d="M1542.23 13.4443C1555.73 14.1636 1569.06 14.529 1582.56 14.8936C1582.75 34.4791 1582.93 53.8802 1582.93 73.4658H1583.67C1583.67 73.0963 1584.04 72.5421 1584.04 72.3574C1584.04 71.988 1584.23 71.6185 1584.41 71.249C1586.08 67.5537 1588.3 64.2277 1591.44 61.2715C1594.4 58.4999 1597.92 56.0975 1601.99 54.4346C1606.06 52.7717 1610.87 51.8477 1616.05 51.8477C1624.37 51.8477 1631.96 53.8806 1638.8 57.9453C1645.65 62.0103 1651.2 68.6623 1655.27 77.5312C1659.52 86.585 1661.56 97.671 1661.56 111.159C1661.56 124.278 1659.89 135.364 1655.82 144.233C1651.94 153.102 1646.39 159.569 1639.54 163.818C1632.51 168.068 1624.74 170.101 1616.23 170.101C1611.05 170.101 1606.24 169.177 1601.99 167.515C1597.73 165.852 1594.22 163.634 1591.26 160.862C1588.3 157.906 1585.89 154.765 1584.23 151.069C1584.22 151.06 1584.04 150.698 1583.86 150.516C1583.86 150.331 1583.86 150.146 1583.67 149.961H1582.56V168.808C1569.06 168.992 1555.55 169.546 1542.23 170.101C1543.71 117.82 1543.71 65.54 1542.23 13.4443ZM1601.25 82.7051C1597.36 82.7051 1593.85 83.813 1591.07 86.0303C1588.3 88.2475 1586.08 91.3889 1584.6 95.8232C1583.12 100.073 1582.19 105.062 1582.38 110.79C1582.38 116.518 1583.12 121.506 1584.6 125.756L1584.41 125.94C1585.89 130.19 1588.11 133.516 1590.89 135.733C1593.66 138.135 1597.18 139.244 1601.06 139.244C1605.13 139.244 1608.46 138.135 1611.42 135.733C1614.38 133.516 1616.42 130.19 1617.9 125.94C1619.38 121.691 1620.12 116.702 1620.12 110.79C1620.12 105.062 1619.38 99.8884 1617.9 95.6387C1616.42 91.389 1614.2 88.0627 1611.42 86.0303C1608.65 83.8132 1605.13 82.7051 1601.25 82.7051Z" fill="black"/>
<path d="M858.968 52.5996C858.906 52.5954 858.844 52.5921 858.782 52.5879H858.968C858.968 52.5918 858.968 52.5957 858.968 52.5996Z" fill="black"/>
<path d="M878.763 0C882.463 0 885.793 0.554063 888.939 2.03223C892.084 3.32562 894.489 5.35836 896.339 8.12988C898.189 10.9014 898.929 13.8578 898.929 17.1836C898.929 20.6942 898.003 23.8355 896.153 26.9766C894.303 29.9328 891.898 32.3349 888.753 34.1826C885.793 36.0302 882.278 36.9541 878.763 36.9541C875.063 36.9541 871.548 36.0302 868.588 34.1826H868.773C865.627 32.3349 863.222 29.9329 861.372 26.9766C859.522 24.0203 858.412 20.6942 858.412 17.1836C858.412 13.8577 859.338 10.7167 861.188 8.12988C863.038 5.35836 865.628 3.51038 868.588 2.03223C871.733 0.554223 875.063 2.8909e-05 878.763 0Z" fill="black"/>
<path d="M1542.23 13.416C1542.23 13.4254 1542.23 13.4349 1542.23 13.4443C1542.05 13.4345 1541.86 13.426 1541.68 13.416H1542.23Z" fill="black"/>
</svg>
