<svg width="16" height="16" viewBox="0 0 16 16" fill="none" xmlns="http://www.w3.org/2000/svg">
<g clip-path="url(#clip0_988_4256)">
<path d="M8 0.5C12.1321 0.5 15.4999 3.93474 15.5 8.20215C15.4996 9.81909 15.0042 11.3939 14.0859 12.7051C13.1913 13.9825 11.9392 14.945 10.5 15.4697C10.5008 15.3133 10.503 15.0764 10.5049 14.7773C10.5074 14.3847 10.5098 13.8887 10.5098 13.3389C10.5097 12.8952 10.4354 12.5112 10.3076 12.1914C11.0009 12.0434 11.7049 11.7807 12.2881 11.2793C13.1158 10.5674 13.6201 9.45066 13.6201 7.77148C13.6201 6.85541 13.3351 6.08529 12.8564 5.45898C12.9713 5.01619 13.0734 4.20618 12.6855 3.21191L12.6006 2.99414L12.3799 2.91992L12.2812 3.21191C12.3696 2.94907 12.3784 2.92268 12.3789 2.91992L12.3779 2.91895H12.375C12.3737 2.91852 12.3725 2.91743 12.3711 2.91699C12.3681 2.91605 12.3646 2.91505 12.3613 2.91406C12.3549 2.91212 12.3477 2.91027 12.3398 2.9082C12.3236 2.90393 12.3041 2.89971 12.2822 2.89551C12.2384 2.8871 12.1834 2.8794 12.1172 2.87598C11.9843 2.8691 11.8087 2.87866 11.5889 2.92578C11.1863 3.0121 10.6392 3.22446 9.92969 3.69238C9.31091 3.53565 8.66411 3.45801 8.01953 3.45801C7.37417 3.45805 6.72687 3.53523 6.10742 3.69238C5.39893 3.22945 4.85377 3.01706 4.45312 2.92969C4.23445 2.88203 4.05966 2.87138 3.92773 2.87695C3.86202 2.87975 3.80718 2.88673 3.76367 2.89453C3.74209 2.89841 3.72304 2.90226 3.70703 2.90625C3.69899 2.90826 3.69119 2.91022 3.68457 2.91211C3.68145 2.913 3.67858 2.91419 3.67578 2.91504C3.67431 2.91549 3.67229 2.91558 3.6709 2.91602L3.66895 2.91699H3.66797C3.66748 2.91715 3.66736 2.91759 3.82031 3.39355L3.66699 2.91797L3.44043 2.99023L3.35449 3.21191C2.96639 4.2067 3.0677 5.01732 3.18262 5.45996C2.70395 6.08828 2.41997 6.8656 2.41992 7.77148C2.41992 9.44506 2.92081 10.5613 3.74512 11.2744C4.32676 11.7775 5.03019 12.0415 5.72363 12.1904C5.67881 12.3025 5.64184 12.4229 5.61133 12.5508C5.44031 12.6055 5.23552 12.6483 5.0293 12.6289C4.75508 12.603 4.43117 12.4716 4.15234 11.9912L4.14648 11.9814C4.05484 11.8312 3.87352 11.5723 3.61133 11.3467C3.35026 11.122 2.96464 10.8935 2.48145 10.9014C2.30049 10.9042 2.05771 10.9275 1.86914 11.0693C1.75494 11.1553 1.66046 11.286 1.63184 11.4531C1.60563 11.6067 1.64389 11.7373 1.68164 11.8223C1.75241 11.9815 1.87483 12.1021 1.95898 12.1748C2.05094 12.2542 2.155 12.3234 2.25098 12.377V12.3789C2.26489 12.3869 2.31058 12.4206 2.38086 12.502C2.44638 12.5779 2.51579 12.6735 2.58301 12.7783C2.72081 12.9932 2.82266 13.2031 2.85254 13.2812V13.2803C2.95795 13.5781 3.18797 14.027 3.72168 14.334C4.15563 14.5835 4.7372 14.7053 5.51172 14.6377C5.5126 14.774 5.51357 14.9033 5.51465 15.0205C5.51635 15.2059 5.51667 15.3595 5.51758 15.4688C4.07394 14.9493 2.81621 13.9898 1.91797 12.7119C0.995893 11.4001 0.499171 9.82186 0.5 8.20215C0.500106 3.93474 3.86791 0.5 8 0.5Z" fill="#24292F" stroke="#24292F"/>
</g>
<defs>
<clipPath id="clip0_988_4256">
<rect width="16" height="16" rx="8" fill="white"/>
</clipPath>
</defs>
</svg>
