<svg width="16" height="16" viewBox="0 0 16 16" fill="none" xmlns="http://www.w3.org/2000/svg">
<path fill-rule="evenodd" clip-rule="evenodd" d="M3.63734 15.9921C3.28051 15.9794 2.82063 15.9515 2.61161 15.9093C2.29254 15.8449 1.99122 15.7472 1.74063 15.6195C1.44622 15.4694 1.18235 15.278 0.954502 15.0505C0.726136 14.8226 0.533931 14.5585 0.383286 14.2636C0.255926 14.0144 0.158289 13.7149 0.0935818 13.3976C0.0505441 13.1865 0.0220805 12.7232 0.00917738 12.3641C0.0039449 12.2173 0.00126018 12.0273 0.00126018 11.9397L0 4.06152C0 3.97427 0.00265733 3.78426 0.00786241 3.63731C0.0205464 3.28051 0.048462 2.82063 0.0906779 2.61161C0.155084 2.29256 0.252802 1.99122 0.380491 1.74063C0.530562 1.44619 0.721972 1.18237 0.949461 0.954502C1.17739 0.726163 1.44153 0.533959 1.73636 0.383286C1.98563 0.255953 2.28511 0.158289 2.60235 0.0935818C2.81348 0.0505441 3.27682 0.0220805 3.63594 0.00920477C3.78267 0.0039449 3.97265 0.00126018 4.06026 0.00126018L11.9384 0C12.0257 0 12.2157 0.00262993 12.3626 0.00786241C12.7195 0.0205738 13.1794 0.048462 13.3884 0.0906779C13.7074 0.155111 14.0088 0.25283 14.2593 0.380491C14.5538 0.530562 14.8176 0.721999 15.0455 0.949461C15.2738 1.17742 15.466 1.44151 15.6167 1.73636C15.744 1.98563 15.8417 2.28508 15.9064 2.60235C15.9495 2.81348 15.9779 3.27684 15.9908 3.63594C15.9961 3.7827 15.9987 3.97265 15.9987 4.06026L16 11.9384C16 12.0257 15.9973 12.2157 15.9921 12.3627C15.9794 12.7195 15.9515 13.1793 15.9093 13.3884C15.8449 13.7074 15.7472 14.0088 15.6195 14.2593C15.4694 14.5538 15.278 14.8176 15.0505 15.0455C14.8226 15.2738 14.5584 15.466 14.2636 15.6167C14.0143 15.744 13.7149 15.8417 13.3976 15.9064C13.1865 15.9494 12.7232 15.9779 12.3641 15.9908C12.2173 15.9961 12.0273 15.9987 11.9397 15.9987L4.06152 16C3.97424 16 3.78423 15.9973 3.63734 15.9921Z" fill="url(#paint0_radial_988_4257)"/>
<mask id="mask0_988_4257" style="mask-type:luminance" maskUnits="userSpaceOnUse" x="0" y="0" width="16" height="16">
<path fill-rule="evenodd" clip-rule="evenodd" d="M3.63734 15.9921C3.28051 15.9794 2.82063 15.9515 2.61161 15.9093C2.29254 15.8449 1.99122 15.7472 1.74063 15.6195C1.44622 15.4694 1.18235 15.278 0.954502 15.0505C0.726136 14.8226 0.533931 14.5585 0.383286 14.2636C0.255926 14.0144 0.158289 13.7149 0.0935818 13.3976C0.0505441 13.1865 0.0220805 12.7232 0.00917738 12.3641C0.0039449 12.2173 0.00126018 12.0273 0.00126018 11.9397L0 4.06152C0 3.97427 0.00265733 3.78426 0.00786241 3.63731C0.0205464 3.28051 0.048462 2.82063 0.0906779 2.61161C0.155084 2.29256 0.252802 1.99122 0.380491 1.74063C0.530562 1.44619 0.721972 1.18237 0.949461 0.954502C1.17739 0.726163 1.44153 0.533959 1.73636 0.383286C1.98563 0.255953 2.28511 0.158289 2.60235 0.0935818C2.81348 0.0505441 3.27682 0.0220805 3.63594 0.00920477C3.78267 0.0039449 3.97265 0.00126018 4.06026 0.00126018L11.9384 0C12.0257 0 12.2157 0.00262993 12.3626 0.00786241C12.7195 0.0205738 13.1794 0.048462 13.3884 0.0906779C13.7074 0.155111 14.0088 0.25283 14.2593 0.380491C14.5538 0.530562 14.8176 0.721999 15.0455 0.949461C15.2738 1.17742 15.466 1.44151 15.6167 1.73636C15.744 1.98563 15.8417 2.28508 15.9064 2.60235C15.9495 2.81348 15.9779 3.27684 15.9908 3.63594C15.9961 3.7827 15.9987 3.97265 15.9987 4.06026L16 11.9384C16 12.0257 15.9973 12.2157 15.9921 12.3627C15.9794 12.7195 15.9515 13.1793 15.9093 13.3884C15.8449 13.7074 15.7472 14.0088 15.6195 14.2593C15.4694 14.5538 15.278 14.8176 15.0505 15.0455C14.8226 15.2738 14.5584 15.466 14.2636 15.6167C14.0143 15.744 13.7149 15.8417 13.3976 15.9064C13.1865 15.9494 12.7232 15.9779 12.3641 15.9908C12.2173 15.9961 12.0273 15.9987 11.9397 15.9987L4.06152 16C3.97424 16 3.78423 15.9973 3.63734 15.9921Z" fill="white"/>
</mask>
<g mask="url(#mask0_988_4257)">
<path fill-rule="evenodd" clip-rule="evenodd" d="M8.03319 2.05811C6.42584 2.05811 6.22412 2.06517 5.59282 2.09406C4.96275 2.12308 4.53268 2.22339 4.15637 2.37057C3.7671 2.52258 3.43691 2.72593 3.10794 3.05686C2.77873 3.38767 2.57651 3.71972 2.42485 4.11104C2.27812 4.48959 2.17825 4.9222 2.14989 5.55555C2.12166 6.19039 2.11426 6.39337 2.11426 8.00973C2.11426 9.62609 2.12141 9.82832 2.15002 10.4632C2.17899 11.0968 2.27874 11.5292 2.42498 11.9077C2.57627 12.2991 2.77848 12.6312 3.10757 12.962C3.43641 13.293 3.76661 13.4969 4.15563 13.6489C4.53219 13.7961 4.96238 13.8964 5.59233 13.9254C6.22363 13.9543 6.42522 13.9614 8.03245 13.9614C9.63992 13.9614 9.84102 13.9543 10.4723 13.9254C11.1024 13.8964 11.533 13.7961 11.9095 13.6489C12.2987 13.4969 12.6284 13.293 12.9572 12.962C13.2864 12.6312 13.4886 12.2991 13.6403 11.9078C13.7858 11.5292 13.8857 11.0966 13.9153 10.4633C13.9436 9.82845 13.951 9.62609 13.951 8.00973C13.951 6.39337 13.9436 6.19052 13.9153 5.55568C13.8857 4.92208 13.7858 4.48959 13.6403 4.11117C13.4886 3.71972 13.2864 3.38767 12.9572 3.05686C12.628 2.7258 12.2988 2.52246 11.9091 2.37057C11.5318 2.22339 11.1015 2.12308 10.4715 2.09406C9.84016 2.06517 9.63918 2.05811 8.03134 2.05811H8.03319ZM7.83588 3.13051H7.83593L8.03319 3.13057C9.61341 3.13057 9.8007 3.13628 10.4247 3.16479C11.0018 3.19133 11.315 3.28829 11.5236 3.36975C11.7998 3.47763 11.9967 3.60658 12.2037 3.81489C12.4109 4.02319 12.5391 4.22158 12.6466 4.49932C12.7276 4.70887 12.8242 5.02381 12.8504 5.60409C12.8788 6.23149 12.8849 6.41996 12.8849 8.0083C12.8849 9.59664 12.8788 9.78511 12.8504 10.4125C12.824 10.9928 12.7276 11.3077 12.6466 11.5173C12.5393 11.795 12.4109 11.9928 12.2037 12.201C11.9966 12.4093 11.7999 12.5382 11.5236 12.6461C11.3152 12.7279 11.0018 12.8247 10.4247 12.8512C9.80083 12.8797 9.61341 12.8859 8.03319 12.8859C6.45284 12.8859 6.26555 12.8797 5.64165 12.8512C5.0646 12.8244 4.75141 12.7274 4.54267 12.646C4.26647 12.5381 4.06919 12.4092 3.86205 12.2008C3.6549 11.9925 3.52667 11.7947 3.41915 11.5168C3.33814 11.3072 3.2416 10.9923 3.21533 10.412C3.18697 9.78461 3.1813 9.59615 3.1813 8.00681C3.1813 6.41748 3.18697 6.23 3.21533 5.6026C3.24172 5.02232 3.33814 4.70738 3.41915 4.49759C3.52642 4.21984 3.6549 4.02146 3.86205 3.81315C4.06919 3.60484 4.26647 3.47589 4.54267 3.36777C4.75129 3.28593 5.0646 3.18922 5.64165 3.16256C6.18762 3.13776 6.39921 3.13032 7.50225 3.12908V3.13057C7.60531 3.13041 7.71617 3.13046 7.83579 3.13051H7.83584H7.83588ZM10.4822 4.83276C10.4822 4.43834 10.8003 4.11881 11.1924 4.11881V4.11856C11.5845 4.11856 11.9026 4.43846 11.9026 4.83276C11.9026 5.22705 11.5845 5.54695 11.1924 5.54695C10.8003 5.54695 10.4822 5.22705 10.4822 4.83276ZM8.03307 4.95327C6.35463 4.95334 4.99383 6.32181 4.99383 8.00968C4.99383 9.69758 6.3547 11.0655 8.03319 11.0655C9.71168 11.0655 11.0721 9.69758 11.0721 8.00968C11.0721 6.32177 9.71156 4.95327 8.03307 4.95327ZM10.006 8.00966C10.006 6.91395 9.12267 6.02579 8.03319 6.02579C6.94358 6.02579 6.06037 6.91395 6.06037 8.00966C6.06037 9.10526 6.94358 9.99354 8.03319 9.99354C9.12267 9.99354 10.006 9.10526 10.006 8.00966Z" fill="white"/>
</g>
<defs>
<radialGradient id="paint0_radial_988_4257" cx="0" cy="0" r="1" gradientUnits="userSpaceOnUse" gradientTransform="translate(4.25002 17.2323) rotate(-90) scale(15.8572 15.8572)">
<stop stop-color="#FFDD55"/>
<stop offset="0.1" stop-color="#FFDD55"/>
<stop offset="0.5" stop-color="#FF543E"/>
<stop offset="1" stop-color="#C837AB"/>
</radialGradient>
</defs>
</svg>
